<svg xmlns="http://www.w3.org/2000/svg" viewBox="0 0 32 32" width="32" height="32">
  <!-- Background circle -->
  <circle cx="16" cy="16" r="16" fill="#E4002B"/>
  
  <!-- Cross -->
  <rect x="14" y="6" width="4" height="20" fill="white" rx="1"/>
  <rect x="8" y="14" width="16" height="4" fill="white" rx="1"/>
  
  <!-- Flame -->
  <path d="M16 4 C18 4, 20 6, 20 9 C20 11, 18 12, 17 13 C18 14, 19 15, 19 17 C19 19, 17 20, 16 20 C15 20, 13 19, 13 17 C13 15, 14 14, 15 13 C14 12, 12 11, 12 9 C12 6, 14 4, 16 4 Z" fill="#FFD700" opacity="0.9"/>
</svg>